<!DOCTYPE svg PUBLIC "-//W3C//DTD SVG 1.1//EN" "http://www.w3.org/Graphics/SVG/1.1/DTD/svg11.dtd">
<!-- Uploaded to: SVG Repo, www.svgrepo.com, Transformed by: SVG Repo Mixer Tools -->
<svg width="800px" height="800px" viewBox="-2 -2 24.00 24.00" version="1.1" xmlns="http://www.w3.org/2000/svg" xmlns:xlink="http://www.w3.org/1999/xlink" fill="#000000">
<g id="SVGRepo_bgCarrier" stroke-width="0">
<path transform="translate(-2, -2), scale(0.75)" d="M16,28.338157751254343C18.56800416294204,28.89860819972473,21.194896075363907,27.619142988168914,23.37473153200142,26.150447148975438C25.61413349648384,24.64161750887478,27.112553887686,22.411956451270765,28.354413209481024,20.01419218716038C29.829511682137685,17.166093097589144,32.58810660406641,13.950781368726087,31.18773857666575,11.065204595204975C29.745803643769158,8.093975696885744,25.04740581362561,9.150627465570322,22.23896718448907,7.412798364856307C19.774526683873773,5.887831297919108,18.890242187834115,1.880496600691505,16,1.667208926458109C13.128167127455338,1.4552797819904342,10.78587946187101,4.139086873904198,9.054116888833455,6.4398120640843C7.623877566882336,8.339949927802694,8.253552847570605,10.991175483949032,7.331663936022897,13.183486879247813C6.268098997153222,15.712713021267176,2.4502567172561296,17.51763071733388,3.298535738785654,20.12695590946688C4.146861519953054,22.73642493528902,8.339601285174817,21.882345254827595,10.643909053241345,23.372026743517942C12.739850017407743,24.72700392971486,13.561612258286008,27.80599525591685,16,28.338157751254343" fill="#9fec7e" strokewidth="0"/>
</g>
<g id="SVGRepo_tracerCarrier" stroke-linecap="round" stroke-linejoin="round"/>
<g id="SVGRepo_iconCarrier"> <title>chess [#1218]</title> <desc>Created with Sketch.</desc> <defs> </defs> <g id="Page-1" stroke="none" stroke-width="1" fill="none" fill-rule="evenodd"> <g id="Dribbble-Light-Preview" transform="translate(-220.000000, -2719.000000)" fill="#000000"> <g id="icons" transform="translate(56.000000, 160.000000)"> <path d="M174,2573 L178,2573 L178,2569 L174,2569 L174,2573 Z M170,2569 L174,2569 L174,2565 L170,2565 L170,2569 Z M182,2565 L178,2565 L178,2569 L182,2569 L182,2573 L178,2573 L178,2577 L174,2577 L174,2573 L170,2573 L170,2577 L167,2577 C166.448,2577 166,2576.657 166,2576.105 L166,2573 L170,2573 L170,2569 L166,2569 L166,2565 L170,2565 L170,2561 L174,2561 L174,2565 L178,2565 L178,2561 L181,2561 C181.552,2561 182,2561.552 182,2562.105 L182,2565 Z M182,2559 L166,2559 C164.895,2559 164,2559.895 164,2561 L164,2577 C164,2578.104 164.895,2579 166,2579 L182,2579 C183.105,2579 184,2578.104 184,2577 L184,2561 C184,2559.895 183.105,2559 182,2559 L182,2559 Z" id="chess-[#1218]"> </path> </g> </g> </g> </g>
</svg>